<mxfile host="app.diagrams.net" modified="2023-11-27T19:26:08.003Z" agent="Mozilla/5.0 (Windows NT 10.0; Win64; x64; rv:120.0) Gecko/20100101 Firefox/120.0" etag="5-0fIczEfvioxrgU5Gr9" version="22.1.3" type="device">
  <diagram name="Page-1" id="U8AR7msm5U1iHHjeJ5ts">
    <mxGraphModel dx="1050" dy="538" grid="0" gridSize="10" guides="1" tooltips="1" connect="1" arrows="1" fold="1" page="1" pageScale="1" pageWidth="850" pageHeight="1100" background="none" math="0" shadow="0">
      <root>
        <mxCell id="0" />
        <mxCell id="1" parent="0" />
        <mxCell id="4vmWkP6m1FoCuW4rCbRh-8" value="" style="shape=parallelogram;perimeter=parallelogramPerimeter;whiteSpace=wrap;html=1;fixedSize=1;size=40;rotation=0;direction=west;flipH=1;strokeWidth=8;fillColor=#FF270F;strokeColor=#171717;shadow=1;labelBorderColor=#007FFF;perimeterSpacing=0;gradientColor=#82261F;gradientDirection=east;" vertex="1" parent="1">
          <mxGeometry x="196" y="119" width="420" height="130" as="geometry" />
        </mxCell>
      </root>
    </mxGraphModel>
  </diagram>
</mxfile>
